<svg width="126" height="42" viewBox="0 0 126 42" fill="none" xmlns="http://www.w3.org/2000/svg">
<g clip-path="url(#clip0_14363_150814)">
<path fill-rule="evenodd" clip-rule="evenodd" d="M35.6467 2.26895C35.9277 1.72285 36.7155 1.72285 36.9966 2.26895L37.9435 4.10912C37.9592 4.13965 37.9887 4.1609 38.0229 4.16629L40.0812 4.49094C40.6917 4.58723 40.935 5.3281 40.4985 5.76163L39.0249 7.22481C39.0005 7.24906 38.9893 7.28335 38.9947 7.31716L39.3194 9.35927C39.4157 9.9645 38.7785 10.4226 38.2273 10.1445L36.3708 9.20787C36.3399 9.19229 36.3033 9.19229 36.2725 9.20787L34.416 10.1445C33.8648 10.4226 33.2276 9.9645 33.3238 9.35927L33.6486 7.31716C33.654 7.28335 33.6427 7.24906 33.6183 7.22481L32.1448 5.76163C31.7082 5.3281 31.9515 4.58723 32.562 4.49094L34.6203 4.16629C34.6545 4.1609 34.684 4.13965 34.6997 4.10912L35.6467 2.26895Z" fill="#F1BC2E"/>
</g>
<path fill-rule="evenodd" clip-rule="evenodd" d="M48.4504 2.26895C48.7314 1.72285 49.5193 1.72285 49.8003 2.26895L50.7472 4.10912C50.7629 4.13965 50.7925 4.1609 50.8266 4.16629L52.8849 4.49094C53.4955 4.58723 53.7387 5.3281 53.3022 5.76163L51.8286 7.22481C51.8042 7.24906 51.793 7.28335 51.7984 7.31716L52.1232 9.35927C52.2194 9.9645 51.5822 10.4226 51.031 10.1445L49.1745 9.20787C49.1436 9.19229 49.1071 9.19229 49.0762 9.20787L47.2197 10.1445C46.6685 10.4226 46.0313 9.9645 46.1275 9.35927L46.4523 7.31716C46.4577 7.28335 46.4464 7.24906 46.422 7.22481L44.9485 5.76163C44.512 5.3281 44.7552 4.58723 45.3657 4.49094L47.4241 4.16629C47.4582 4.1609 47.4877 4.13965 47.5035 4.10912L48.4504 2.26895Z" fill="#F1BC2E"/>
<g clip-path="url(#clip1_14363_150814)">
<path fill-rule="evenodd" clip-rule="evenodd" d="M61.2497 2.26895C61.5307 1.72285 62.3186 1.72285 62.5996 2.26895L63.5465 4.10912C63.5622 4.13965 63.5918 4.1609 63.6259 4.16629L65.6843 4.49094C66.2948 4.58723 66.5381 5.3281 66.1015 5.76163L64.628 7.22481C64.6035 7.24906 64.5923 7.28335 64.5977 7.31716L64.9225 9.35927C65.0187 9.9645 64.3815 10.4226 63.8303 10.1445L61.9738 9.20787C61.9429 9.19229 61.9064 9.19229 61.8755 9.20787L60.019 10.1445C59.4678 10.4226 58.8306 9.9645 58.9268 9.35927L59.2516 7.31716C59.257 7.28335 59.2458 7.24906 59.2214 7.22481L57.7478 5.76163C57.3113 5.3281 57.5545 4.58723 58.1651 4.49094L60.2234 4.16629C60.2575 4.1609 60.2871 4.13965 60.3028 4.10912L61.2497 2.26895Z" fill="#F1BC2E"/>
</g>
<g clip-path="url(#clip2_14363_150814)">
<path fill-rule="evenodd" clip-rule="evenodd" d="M74.0456 2.26895C74.3266 1.72285 75.1145 1.72285 75.3955 2.26895L76.3424 4.10912C76.3581 4.13965 76.3877 4.1609 76.4218 4.16629L78.4802 4.49094C79.0907 4.58723 79.3339 5.3281 78.8974 5.76163L77.4239 7.22481C77.3994 7.24906 77.3882 7.28335 77.3936 7.31716L77.7184 9.35927C77.8146 9.9645 77.1774 10.4226 76.6262 10.1445L74.7697 9.20787C74.7388 9.19229 74.7023 9.19229 74.6714 9.20787L72.8149 10.1445C72.2637 10.4226 71.6265 9.9645 71.7227 9.35927L72.0475 7.31716C72.0529 7.28335 72.0417 7.24906 72.0173 7.22481L70.5437 5.76163C70.1072 5.3281 70.3504 4.58723 70.961 4.49094L73.0193 4.16629C73.0534 4.1609 73.083 4.13965 73.0987 4.10912L74.0456 2.26895Z" fill="#F1BC2E"/>
</g>
<path fill-rule="evenodd" clip-rule="evenodd" d="M86.8488 2.26895C87.1299 1.72285 87.9177 1.72285 88.1987 2.26895L89.1457 4.10912C89.1614 4.13965 89.1909 4.1609 89.2251 4.16629L91.2834 4.49094C91.8939 4.58723 92.1372 5.3281 91.7006 5.76163L90.2271 7.22481C90.2027 7.24906 90.1914 7.28335 90.1968 7.31716L90.5216 9.35927C90.6179 9.9645 89.9806 10.4226 89.4294 10.1445L87.5729 9.20787C87.5421 9.19229 87.5055 9.19229 87.4746 9.20787L85.6182 10.1445C85.0669 10.4226 84.4297 9.9645 84.526 9.35927L84.8508 7.31716C84.8561 7.28335 84.8449 7.24906 84.8205 7.22481L83.3469 5.76163C82.9104 5.3281 83.1537 4.58723 83.7642 4.49094L85.8225 4.16629C85.8567 4.1609 85.8862 4.13965 85.9019 4.10912L86.8488 2.26895Z" fill="#F1BC2E"/>
<path d="M35.7244 21.2998L36.1004 19.9878H35.1404V19.0678H36.3644L36.8044 17.5638H35.8444V16.6438H37.0604L37.4364 15.3398H38.5004L38.1244 16.6438H39.4444L39.8124 15.3398H40.8764L40.5004 16.6438H41.4604V17.5638H40.2364L39.8044 19.0678H40.7644V19.9878H39.5404L39.1644 21.2998H38.1084L38.4764 19.9878H37.1644L36.7884 21.2998H35.7244ZM37.4284 19.0678H38.7484L39.1724 17.5638H37.8604L37.4284 19.0678ZM43.3487 21.2998V16.2678H42.1967V15.3398H44.4367V21.2998H43.3487ZM47.1891 21.2998V15.3398H49.4051C49.8105 15.3398 50.1678 15.4145 50.4771 15.5638C50.7918 15.7078 51.0371 15.9211 51.2131 16.2038C51.3891 16.4811 51.4771 16.8198 51.4771 17.2198C51.4771 17.6305 51.3785 17.9798 51.1811 18.2678C50.9891 18.5558 50.7278 18.7691 50.3971 18.9078L51.7651 21.2998H50.5331L49.0691 18.6838L49.7731 19.0998H48.2771V21.2998H47.1891ZM48.2771 18.1398H49.4211C49.6185 18.1398 49.7891 18.1025 49.9331 18.0278C50.0771 17.9478 50.1891 17.8385 50.2691 17.6998C50.3491 17.5611 50.3891 17.4011 50.3891 17.2198C50.3891 17.0331 50.3491 16.8731 50.2691 16.7398C50.1891 16.6011 50.0771 16.4945 49.9331 16.4198C49.7891 16.3398 49.6185 16.2998 49.4211 16.2998H48.2771V18.1398ZM51.9902 21.2998L54.0462 15.3398H55.4542L57.5102 21.2998H56.3262L55.9022 20.0198H53.5982L53.1662 21.2998H51.9902ZM53.9102 19.0598H55.5902L54.5982 16.0918H54.9022L53.9102 19.0598ZM58.1735 21.2998V15.3398H59.0215L62.3015 19.7558L61.8615 19.8438V15.3398H62.9495V21.2998H62.0935L58.8615 16.8518L59.2615 16.7638V21.2998H58.1735ZM64.1032 21.2998V15.3398H65.1912V18.4438L64.8952 18.3398L67.4312 15.3398H68.7992L66.4232 18.1558L66.4872 17.3878L68.8712 21.2998H67.5912L65.9912 18.6758L65.1912 19.6278V21.2998H64.1032ZM69.5329 21.2998V15.3398H73.4929V16.2998H70.6209V17.8278H73.3329V18.7878H70.6209V20.3398H73.4929V21.2998H69.5329ZM74.2907 21.2998V15.3398H76.2347C76.864 15.3398 77.4107 15.4678 77.8747 15.7238C78.344 15.9745 78.7067 16.3238 78.9627 16.7718C79.2187 17.2145 79.3467 17.7291 79.3467 18.3158C79.3467 18.8971 79.2187 19.4145 78.9627 19.8678C78.7067 20.3158 78.344 20.6678 77.8747 20.9238C77.4107 21.1745 76.864 21.2998 76.2347 21.2998H74.2907ZM75.3787 20.3398H76.2587C76.664 20.3398 77.0134 20.2571 77.3067 20.0918C77.6054 19.9211 77.8374 19.6865 78.0027 19.3878C78.168 19.0838 78.2507 18.7265 78.2507 18.3158C78.2507 17.8998 78.168 17.5425 78.0027 17.2438C77.8374 16.9451 77.6054 16.7131 77.3067 16.5478C77.0134 16.3825 76.664 16.2998 76.2587 16.2998H75.3787V20.3398ZM81.1464 21.2998L83.2024 15.3398H84.6104L86.6664 21.2998H85.4824L85.0584 20.0198H82.7544L82.3224 21.2998H81.1464ZM83.0664 19.0598H84.7464L83.7544 16.0918H84.0584L83.0664 19.0598ZM87.3298 21.2998V15.3398H88.4178V21.2998H87.3298ZM30.5048 31.3958C30.0781 31.3958 29.6834 31.3185 29.3208 31.1638C28.9634 31.0091 28.6488 30.7931 28.3768 30.5158C28.1101 30.2385 27.9021 29.9131 27.7528 29.5398C27.6034 29.1665 27.5288 28.7585 27.5288 28.3158C27.5288 27.8731 27.6008 27.4651 27.7448 27.0918C27.8941 26.7131 28.1021 26.3878 28.3688 26.1158C28.6408 25.8385 28.9581 25.6251 29.3208 25.4758C29.6834 25.3211 30.0781 25.2438 30.5048 25.2438C30.9314 25.2438 31.3128 25.3158 31.6488 25.4598C31.9901 25.6038 32.2781 25.7958 32.5128 26.0358C32.7474 26.2705 32.9154 26.5291 33.0168 26.8118L32.0408 27.2678C31.9288 26.9691 31.7394 26.7238 31.4728 26.5318C31.2061 26.3345 30.8834 26.2358 30.5048 26.2358C30.1314 26.2358 29.8008 26.3238 29.5128 26.4998C29.2301 26.6758 29.0088 26.9185 28.8488 27.2278C28.6941 27.5371 28.6168 27.8998 28.6168 28.3158C28.6168 28.7318 28.6941 29.0971 28.8488 29.4118C29.0088 29.7211 29.2301 29.9638 29.5128 30.1398C29.8008 30.3158 30.1314 30.4038 30.5048 30.4038C30.8834 30.4038 31.2061 30.3078 31.4728 30.1158C31.7394 29.9185 31.9288 29.6705 32.0408 29.3718L33.0168 29.8278C32.9154 30.1105 32.7474 30.3718 32.5128 30.6118C32.2781 30.8465 31.9901 31.0358 31.6488 31.1798C31.3128 31.3238 30.9314 31.3958 30.5048 31.3958ZM36.8361 31.3958C36.3987 31.3958 35.9907 31.3185 35.6121 31.1638C35.2334 31.0091 34.9027 30.7931 34.6201 30.5158C34.3374 30.2385 34.1161 29.9131 33.9561 29.5398C33.8014 29.1611 33.7241 28.7531 33.7241 28.3158C33.7241 27.8731 33.8014 27.4651 33.9561 27.0918C34.1107 26.7185 34.3294 26.3931 34.6121 26.1158C34.8947 25.8385 35.2254 25.6251 35.6041 25.4758C35.9827 25.3211 36.3934 25.2438 36.8361 25.2438C37.2787 25.2438 37.6894 25.3211 38.0681 25.4758C38.4467 25.6305 38.7774 25.8465 39.0601 26.1238C39.3427 26.3958 39.5614 26.7185 39.7161 27.0918C39.8761 27.4651 39.9561 27.8731 39.9561 28.3158C39.9561 28.7531 39.8761 29.1611 39.7161 29.5398C39.5561 29.9131 39.3347 30.2385 39.0521 30.5158C38.7694 30.7931 38.4387 31.0091 38.0601 31.1638C37.6867 31.3185 37.2787 31.3958 36.8361 31.3958ZM36.8361 30.4038C37.1294 30.4038 37.3987 30.3531 37.6441 30.2518C37.8894 30.1451 38.1027 29.9985 38.2841 29.8118C38.4707 29.6251 38.6121 29.4038 38.7081 29.1478C38.8094 28.8918 38.8601 28.6145 38.8601 28.3158C38.8601 28.0171 38.8094 27.7425 38.7081 27.4918C38.6121 27.2358 38.4707 27.0145 38.2841 26.8278C38.1027 26.6358 37.8894 26.4891 37.6441 26.3878C37.3987 26.2865 37.1294 26.2358 36.8361 26.2358C36.5481 26.2358 36.2814 26.2865 36.0361 26.3878C35.7907 26.4891 35.5747 26.6358 35.3881 26.8278C35.2067 27.0145 35.0654 27.2358 34.9641 27.4918C34.8627 27.7425 34.8121 28.0171 34.8121 28.3158C34.8121 28.6145 34.8627 28.8918 34.9641 29.1478C35.0654 29.4038 35.2067 29.6251 35.3881 29.8118C35.5747 29.9985 35.7907 30.1451 36.0361 30.2518C36.2814 30.3531 36.5481 30.4038 36.8361 30.4038ZM40.9235 31.2998V25.3398H41.9635L44.1955 28.3718H43.6995L45.8835 25.3398H46.9235V31.2998H45.8275V26.5798L46.2515 26.6838L43.9875 29.6998H43.8595L41.6515 26.6838L42.0115 26.5798V31.2998H40.9235ZM48.0641 31.2998V25.3398H50.2881C50.6935 25.3398 51.0508 25.4145 51.3601 25.5638C51.6748 25.7078 51.9201 25.9211 52.0961 26.2038C52.2721 26.4811 52.3601 26.8198 52.3601 27.2198C52.3601 27.6145 52.2695 27.9531 52.0881 28.2358C51.9121 28.5131 51.6695 28.7265 51.3601 28.8758C51.0508 29.0251 50.6935 29.0998 50.2881 29.0998H49.1521V31.2998H48.0641ZM49.1521 28.1398H50.3041C50.5015 28.1398 50.6721 28.1025 50.8161 28.0278C50.9601 27.9478 51.0721 27.8385 51.1521 27.6998C51.2321 27.5611 51.2721 27.4011 51.2721 27.2198C51.2721 27.0331 51.2321 26.8731 51.1521 26.7398C51.0721 26.6011 50.9601 26.4945 50.8161 26.4198C50.6721 26.3398 50.5015 26.2998 50.3041 26.2998H49.1521V28.1398ZM52.2871 31.2998L54.3431 25.3398H55.7511L57.8071 31.2998H56.6231L56.1991 30.0198H53.8951L53.4631 31.2998H52.2871ZM54.2071 29.0598H55.8871L54.8951 26.0918H55.1991L54.2071 29.0598ZM58.4704 31.2998V25.3398H59.3184L62.5984 29.7558L62.1584 29.8438V25.3398H63.2464V31.2998H62.3904L59.1584 26.8518L59.5584 26.7638V31.2998H58.4704ZM64.4001 31.2998V25.3398H65.4881V31.2998H64.4001ZM69.5704 31.3958C69.1331 31.3958 68.7251 31.3185 68.3464 31.1638C67.9678 31.0091 67.6371 30.7931 67.3544 30.5158C67.0718 30.2385 66.8504 29.9131 66.6904 29.5398C66.5358 29.1611 66.4584 28.7531 66.4584 28.3158C66.4584 27.8731 66.5358 27.4651 66.6904 27.0918C66.8451 26.7185 67.0638 26.3931 67.3464 26.1158C67.6291 25.8385 67.9598 25.6251 68.3384 25.4758C68.7171 25.3211 69.1278 25.2438 69.5704 25.2438C70.0131 25.2438 70.4238 25.3211 70.8024 25.4758C71.1811 25.6305 71.5118 25.8465 71.7944 26.1238C72.0771 26.3958 72.2958 26.7185 72.4504 27.0918C72.6104 27.4651 72.6904 27.8731 72.6904 28.3158C72.6904 28.7531 72.6104 29.1611 72.4504 29.5398C72.2904 29.9131 72.0691 30.2385 71.7864 30.5158C71.5038 30.7931 71.1731 31.0091 70.7944 31.1638C70.4211 31.3185 70.0131 31.3958 69.5704 31.3958ZM69.5704 30.4038C69.8638 30.4038 70.1331 30.3531 70.3784 30.2518C70.6238 30.1451 70.8371 29.9985 71.0184 29.8118C71.2051 29.6251 71.3464 29.4038 71.4424 29.1478C71.5438 28.8918 71.5944 28.6145 71.5944 28.3158C71.5944 28.0171 71.5438 27.7425 71.4424 27.4918C71.3464 27.2358 71.2051 27.0145 71.0184 26.8278C70.8371 26.6358 70.6238 26.4891 70.3784 26.3878C70.1331 26.2865 69.8638 26.2358 69.5704 26.2358C69.2824 26.2358 69.0158 26.2865 68.7704 26.3878C68.5251 26.4891 68.3091 26.6358 68.1224 26.8278C67.9411 27.0145 67.7998 27.2358 67.6984 27.4918C67.5971 27.7425 67.5464 28.0171 67.5464 28.3158C67.5464 28.6145 67.5971 28.8918 67.6984 29.1478C67.7998 29.4038 67.9411 29.6251 68.1224 29.8118C68.3091 29.9985 68.5251 30.1451 68.7704 30.2518C69.0158 30.3531 69.2824 30.4038 69.5704 30.4038ZM73.6579 31.2998V25.3398H74.5059L77.7859 29.7558L77.3459 29.8438V25.3398H78.4339V31.2998H77.5779L74.3459 26.8518L74.7459 26.7638V31.2998H73.6579ZM80.5214 31.2998L82.5774 25.3398H83.9854L86.0414 31.2998H84.8574L84.4334 30.0198H82.1294L81.6974 31.2998H80.5214ZM82.4414 29.0598H84.1214L83.1294 26.0918H83.4334L82.4414 29.0598ZM86.7048 31.2998V25.3398H88.9288C89.3341 25.3398 89.6914 25.4145 90.0008 25.5638C90.3154 25.7078 90.5608 25.9211 90.7368 26.2038C90.9128 26.4811 91.0008 26.8198 91.0008 27.2198C91.0008 27.6145 90.9101 27.9531 90.7288 28.2358C90.5528 28.5131 90.3101 28.7265 90.0008 28.8758C89.6914 29.0251 89.3341 29.0998 88.9288 29.0998H87.7928V31.2998H86.7048ZM87.7928 28.1398H88.9448C89.1421 28.1398 89.3128 28.1025 89.4568 28.0278C89.6008 27.9478 89.7128 27.8385 89.7928 27.6998C89.8728 27.5611 89.9128 27.4011 89.9128 27.2198C89.9128 27.0331 89.8728 26.8731 89.7928 26.7398C89.7128 26.6011 89.6008 26.4945 89.4568 26.4198C89.3128 26.3398 89.1421 26.2998 88.9448 26.2998H87.7928V28.1398ZM91.8923 31.2998V25.3398H94.1163C94.5216 25.3398 94.8789 25.4145 95.1883 25.5638C95.5029 25.7078 95.7483 25.9211 95.9243 26.2038C96.1003 26.4811 96.1883 26.8198 96.1883 27.2198C96.1883 27.6145 96.0976 27.9531 95.9163 28.2358C95.7403 28.5131 95.4976 28.7265 95.1883 28.8758C94.8789 29.0251 94.5216 29.0998 94.1163 29.0998H92.9803V31.2998H91.8923ZM92.9803 28.1398H94.1323C94.3296 28.1398 94.5003 28.1025 94.6443 28.0278C94.7883 27.9478 94.9003 27.8385 94.9803 27.6998C95.0603 27.5611 95.1003 27.4011 95.1003 27.2198C95.1003 27.0331 95.0603 26.8731 94.9803 26.7398C94.9003 26.6011 94.7883 26.4945 94.6443 26.4198C94.5003 26.3398 94.3296 26.2998 94.1323 26.2998H92.9803V28.1398Z" fill="white"/>
<path d="M19.8887 40.1948C22.2824 39.4768 27.452 38.1486 29.0054 39.3041C29.8967 40.2206 29.006 41.2093 28.1906 41.6176C25.739 42.8449 20.7677 40.7616 19.8887 40.1948Z" fill="url(#paint0_linear_14363_150814)"/>
<path d="M97.5262 39.3041C99.0796 38.1486 104.249 39.4768 106.643 40.1948C105.764 40.7616 100.793 42.8449 98.3409 41.6176C97.5255 41.2093 96.6348 40.2206 97.5262 39.3041Z" fill="url(#paint1_linear_14363_150814)"/>
<path d="M11.3645 38.039C15.1167 37.1451 15.3028 33.9606 21.5646 36.5689C18.7907 40.9985 12.8802 39.3983 11.3645 38.039Z" fill="url(#paint2_linear_14363_150814)"/>
<path d="M104.967 36.5689C111.229 33.9607 111.415 37.1452 115.167 38.039C113.651 39.3983 107.741 40.9985 104.967 36.5689Z" fill="url(#paint3_linear_14363_150814)"/>
<path d="M25.3642 33.0572C28.0633 33.4864 30.3163 35.3459 30.5842 36.5946C31.1192 38.494 30.1006 39.1847 28.1826 38.8516C26.0262 38.494 26.4334 35.2131 25.3642 33.0572Z" fill="url(#paint4_linear_14363_150814)"/>
<path d="M101.167 33.0572C100.098 35.2131 100.505 38.494 98.3489 38.8516C96.4309 39.1847 95.4123 38.494 95.9473 36.5946C96.2152 35.3459 98.4683 33.4864 101.167 33.0572Z" fill="url(#paint5_linear_14363_150814)"/>
<path d="M17.4079 30.2054C18.4199 31.3793 23.785 31.7597 21.753 36.2387C16.4509 35.0405 17.8434 33.3826 17.4079 30.2054Z" fill="url(#paint6_linear_14363_150814)"/>
<path d="M109.124 30.2054C108.688 33.3826 110.081 35.0405 104.778 36.2387C102.746 31.7597 108.112 31.3793 109.124 30.2054Z" fill="url(#paint7_linear_14363_150814)"/>
<path d="M4.84683 31.8629C8.09814 32.5214 9.80656 30.2017 13.2123 34.372C8.95183 36.7085 5.31265 33.4178 4.84683 31.8629Z" fill="url(#paint8_linear_14363_150814)"/>
<path d="M113.319 34.372C116.725 30.2016 118.433 32.5215 121.685 31.8629C121.219 33.4178 117.579 36.7085 113.319 34.372Z" fill="url(#paint9_linear_14363_150814)"/>
<path d="M13.2341 28.1332C13.4138 29.3708 17.2456 31.5548 13.5165 34.1909C10.1348 31.4165 11.9949 30.6675 13.2341 28.1332Z" fill="url(#paint10_linear_14363_150814)"/>
<path d="M113.297 28.1332C114.537 30.6675 116.397 31.4165 113.015 34.1909C109.286 31.5548 113.118 29.3708 113.297 28.1332Z" fill="url(#paint11_linear_14363_150814)"/>
<path d="M2.14993 26.6495C4.87379 27.7423 6.88933 25.9649 8.97983 30.1799C4.70943 31.5703 2.22007 28.0945 2.14993 26.6495Z" fill="url(#paint12_linear_14363_150814)"/>
<path d="M124.381 26.6495C124.311 28.0945 121.822 31.5703 117.551 30.1799C119.642 25.9648 121.657 27.7423 124.381 26.6495Z" fill="url(#paint13_linear_14363_150814)"/>
<path d="M10.3662 24.6798C10.2535 25.7998 13.1551 28.3296 9.28774 30.068C6.91267 27.0883 8.71767 26.7204 10.3662 24.6798Z" fill="url(#paint14_linear_14363_150814)"/>
<path d="M116.165 24.6798C117.814 26.7204 119.619 27.0883 117.244 30.068C113.376 28.3296 116.278 25.7998 116.165 24.6798Z" fill="url(#paint15_linear_14363_150814)"/>
<path d="M1.04201 21.9162C2.99409 23.0326 4.79837 21.8611 5.82675 25.3261C2.3345 25.9733 0.895192 23.0395 1.04201 21.9162Z" fill="url(#paint16_linear_14363_150814)"/>
<path d="M125.49 21.9162C125.636 23.0395 124.197 25.9733 120.705 25.3261C121.733 21.8611 123.537 23.0326 125.49 21.9162Z" fill="url(#paint17_linear_14363_150814)"/>
<path d="M7.66285 21.216C7.41995 22.07 9.30939 24.3144 6.08001 25.2707C4.65984 22.7314 6.10543 22.6275 7.66285 21.216Z" fill="url(#paint18_linear_14363_150814)"/>
<path d="M118.869 21.216C120.426 22.6275 121.871 22.7314 120.451 25.2707C117.222 24.3144 119.112 22.07 118.869 21.216Z" fill="url(#paint19_linear_14363_150814)"/>
<path d="M7.46146 17.5201C6.98175 18.2538 8.04789 20.7269 4.78851 20.9113C4.24291 18.2679 5.60455 18.4838 7.46146 17.5201Z" fill="url(#paint20_linear_14363_150814)"/>
<path d="M119.07 17.5201C120.927 18.4838 122.289 18.268 121.743 20.9113C118.484 20.7269 119.55 18.2538 119.07 17.5201Z" fill="url(#paint21_linear_14363_150814)"/>
<path d="M1.15713 16.7382C2.61912 18.1865 4.63131 17.4968 4.53862 20.9079C1.12998 20.7512 0.685082 17.7405 1.15713 16.7382Z" fill="url(#paint22_linear_14363_150814)"/>
<path d="M125.374 16.7382C125.846 17.7405 125.401 20.7512 121.993 20.9079C121.9 17.4969 123.912 18.1864 125.374 16.7382Z" fill="url(#paint23_linear_14363_150814)"/>
<path d="M8.15219 13.8404C7.47502 14.4521 7.79373 17.071 4.58037 16.573C4.8155 13.897 6.07333 14.3891 8.15219 13.8404Z" fill="url(#paint24_linear_14363_150814)"/>
<path d="M118.379 13.8404C120.458 14.3891 121.716 13.897 121.951 16.573C118.738 17.071 119.056 14.4521 118.379 13.8404Z" fill="url(#paint25_linear_14363_150814)"/>
<path d="M2.26597 11.7728C3.26478 13.4806 5.41495 13.2299 4.33907 16.5178C1.0796 15.658 1.51857 12.6465 2.26597 11.7728Z" fill="url(#paint26_linear_14363_150814)"/>
<path d="M124.265 11.7728C125.013 12.6465 125.452 15.658 122.192 16.5178C121.116 13.2299 123.266 13.4806 124.265 11.7728Z" fill="url(#paint27_linear_14363_150814)"/>
<path d="M9.712 10.1734C9.00608 10.6977 9.02136 13.1949 6.04256 12.473C6.55641 9.96539 7.68984 10.5284 9.712 10.1734Z" fill="url(#paint28_linear_14363_150814)"/>
<path d="M116.82 10.1734C118.842 10.5284 119.975 9.9654 120.489 12.473C117.51 13.1949 117.525 10.6978 116.82 10.1734Z" fill="url(#paint29_linear_14363_150814)"/>
<path d="M4.38144 7.76053C5.13795 9.45081 7.19513 9.38273 5.82091 12.402C2.838 11.3349 3.58065 8.52667 4.38144 7.76053Z" fill="url(#paint30_linear_14363_150814)"/>
<path d="M122.15 7.76053C122.951 8.52668 123.694 11.3349 120.711 12.402C119.336 9.38273 121.394 9.45081 122.15 7.76053Z" fill="url(#paint31_linear_14363_150814)"/>
<path d="M7.89739 8.21484C8.85429 5.94047 9.80707 6.62157 11.7651 6.56569C11.0055 6.95961 10.5453 9.29645 7.89739 8.21484Z" fill="url(#paint32_linear_14363_150814)"/>
<path d="M114.766 6.56569C116.724 6.62157 117.677 5.94048 118.634 8.21484C115.986 9.29644 115.526 6.95963 114.766 6.56569Z" fill="url(#paint33_linear_14363_150814)"/>
<path d="M7.23982 3.58197C7.62598 5.26551 9.56215 5.48256 7.70368 8.11779C5.11757 6.71297 6.34554 4.189 7.23982 3.58197Z" fill="url(#paint34_linear_14363_150814)"/>
<path d="M119.291 3.58197C120.186 4.1889 121.414 6.71292 118.828 8.11779C116.969 5.48255 118.905 5.2655 119.291 3.58197Z" fill="url(#paint35_linear_14363_150814)"/>
<path d="M10.8718 4.56006C11.9715 2.84026 12.6343 3.48591 14.21 3.64754C13.5441 3.88279 12.8328 5.70492 10.8718 4.56006Z" fill="url(#paint36_linear_14363_150814)"/>
<path d="M112.322 3.64754C113.897 3.48591 114.56 2.84025 115.66 4.56006C113.699 5.70494 112.987 3.8828 112.322 3.64754Z" fill="url(#paint37_linear_14363_150814)"/>
<path d="M11.025 0.781953C11.0872 2.17038 12.6053 2.54825 10.7309 4.46197C8.86675 3.06481 10.22 1.17368 11.025 0.781953Z" fill="url(#paint38_linear_14363_150814)"/>
<path d="M115.507 0.781953C116.312 1.17369 117.665 3.06482 115.801 4.46197C113.926 2.54825 115.444 2.17038 115.507 0.781953Z" fill="url(#paint39_linear_14363_150814)"/>
<path d="M12.6689 2.27576C12.7122 0.166843 15.2881 -0.188574 16.1622 0.0760294C14.9566 1.01761 15.6032 2.24146 12.6689 2.27576Z" fill="url(#paint40_linear_14363_150814)"/>
<path d="M110.369 0.0760294C111.243 -0.188574 113.819 0.166843 113.863 2.27576C110.928 2.24146 111.575 1.01761 110.369 0.0760294Z" fill="url(#paint41_linear_14363_150814)"/>
<defs>
<linearGradient id="paint0_linear_14363_150814" x1="72.905" y1="-13.6494" x2="73.048" y2="41.9984" gradientUnits="userSpaceOnUse">
<stop stop-color="#FF7A00"/>
<stop offset="0.745192" stop-color="#E7AC18"/>
<stop offset="1" stop-color="#F8C73D"/>
</linearGradient>
<linearGradient id="paint1_linear_14363_150814" x1="72.905" y1="-13.6494" x2="73.048" y2="41.9984" gradientUnits="userSpaceOnUse">
<stop stop-color="#FF7A00"/>
<stop offset="0.745192" stop-color="#E7AC18"/>
<stop offset="1" stop-color="#F8C73D"/>
</linearGradient>
<linearGradient id="paint2_linear_14363_150814" x1="72.905" y1="-13.6494" x2="73.048" y2="41.9984" gradientUnits="userSpaceOnUse">
<stop stop-color="#FF7A00"/>
<stop offset="0.745192" stop-color="#E7AC18"/>
<stop offset="1" stop-color="#F8C73D"/>
</linearGradient>
<linearGradient id="paint3_linear_14363_150814" x1="72.905" y1="-13.6494" x2="73.048" y2="41.9984" gradientUnits="userSpaceOnUse">
<stop stop-color="#FF7A00"/>
<stop offset="0.745192" stop-color="#E7AC18"/>
<stop offset="1" stop-color="#F8C73D"/>
</linearGradient>
<linearGradient id="paint4_linear_14363_150814" x1="72.905" y1="-13.6494" x2="73.048" y2="41.9984" gradientUnits="userSpaceOnUse">
<stop stop-color="#FF7A00"/>
<stop offset="0.745192" stop-color="#E7AC18"/>
<stop offset="1" stop-color="#F8C73D"/>
</linearGradient>
<linearGradient id="paint5_linear_14363_150814" x1="72.905" y1="-13.6494" x2="73.048" y2="41.9984" gradientUnits="userSpaceOnUse">
<stop stop-color="#FF7A00"/>
<stop offset="0.745192" stop-color="#E7AC18"/>
<stop offset="1" stop-color="#F8C73D"/>
</linearGradient>
<linearGradient id="paint6_linear_14363_150814" x1="72.905" y1="-13.6494" x2="73.048" y2="41.9984" gradientUnits="userSpaceOnUse">
<stop stop-color="#FF7A00"/>
<stop offset="0.745192" stop-color="#E7AC18"/>
<stop offset="1" stop-color="#F8C73D"/>
</linearGradient>
<linearGradient id="paint7_linear_14363_150814" x1="72.905" y1="-13.6494" x2="73.048" y2="41.9984" gradientUnits="userSpaceOnUse">
<stop stop-color="#FF7A00"/>
<stop offset="0.745192" stop-color="#E7AC18"/>
<stop offset="1" stop-color="#F8C73D"/>
</linearGradient>
<linearGradient id="paint8_linear_14363_150814" x1="72.905" y1="-13.6494" x2="73.048" y2="41.9984" gradientUnits="userSpaceOnUse">
<stop stop-color="#FF7A00"/>
<stop offset="0.745192" stop-color="#E7AC18"/>
<stop offset="1" stop-color="#F8C73D"/>
</linearGradient>
<linearGradient id="paint9_linear_14363_150814" x1="72.905" y1="-13.6494" x2="73.048" y2="41.9984" gradientUnits="userSpaceOnUse">
<stop stop-color="#FF7A00"/>
<stop offset="0.745192" stop-color="#E7AC18"/>
<stop offset="1" stop-color="#F8C73D"/>
</linearGradient>
<linearGradient id="paint10_linear_14363_150814" x1="72.905" y1="-13.6494" x2="73.048" y2="41.9984" gradientUnits="userSpaceOnUse">
<stop stop-color="#FF7A00"/>
<stop offset="0.745192" stop-color="#E7AC18"/>
<stop offset="1" stop-color="#F8C73D"/>
</linearGradient>
<linearGradient id="paint11_linear_14363_150814" x1="72.905" y1="-13.6494" x2="73.048" y2="41.9984" gradientUnits="userSpaceOnUse">
<stop stop-color="#FF7A00"/>
<stop offset="0.745192" stop-color="#E7AC18"/>
<stop offset="1" stop-color="#F8C73D"/>
</linearGradient>
<linearGradient id="paint12_linear_14363_150814" x1="72.905" y1="-13.6494" x2="73.048" y2="41.9984" gradientUnits="userSpaceOnUse">
<stop stop-color="#FF7A00"/>
<stop offset="0.745192" stop-color="#E7AC18"/>
<stop offset="1" stop-color="#F8C73D"/>
</linearGradient>
<linearGradient id="paint13_linear_14363_150814" x1="72.905" y1="-13.6494" x2="73.048" y2="41.9984" gradientUnits="userSpaceOnUse">
<stop stop-color="#FF7A00"/>
<stop offset="0.745192" stop-color="#E7AC18"/>
<stop offset="1" stop-color="#F8C73D"/>
</linearGradient>
<linearGradient id="paint14_linear_14363_150814" x1="72.905" y1="-13.6494" x2="73.048" y2="41.9984" gradientUnits="userSpaceOnUse">
<stop stop-color="#FF7A00"/>
<stop offset="0.745192" stop-color="#E7AC18"/>
<stop offset="1" stop-color="#F8C73D"/>
</linearGradient>
<linearGradient id="paint15_linear_14363_150814" x1="72.905" y1="-13.6494" x2="73.048" y2="41.9984" gradientUnits="userSpaceOnUse">
<stop stop-color="#FF7A00"/>
<stop offset="0.745192" stop-color="#E7AC18"/>
<stop offset="1" stop-color="#F8C73D"/>
</linearGradient>
<linearGradient id="paint16_linear_14363_150814" x1="72.905" y1="-13.6494" x2="73.048" y2="41.9984" gradientUnits="userSpaceOnUse">
<stop stop-color="#FF7A00"/>
<stop offset="0.745192" stop-color="#E7AC18"/>
<stop offset="1" stop-color="#F8C73D"/>
</linearGradient>
<linearGradient id="paint17_linear_14363_150814" x1="72.905" y1="-13.6494" x2="73.048" y2="41.9984" gradientUnits="userSpaceOnUse">
<stop stop-color="#FF7A00"/>
<stop offset="0.745192" stop-color="#E7AC18"/>
<stop offset="1" stop-color="#F8C73D"/>
</linearGradient>
<linearGradient id="paint18_linear_14363_150814" x1="72.905" y1="-13.6494" x2="73.048" y2="41.9984" gradientUnits="userSpaceOnUse">
<stop stop-color="#FF7A00"/>
<stop offset="0.745192" stop-color="#E7AC18"/>
<stop offset="1" stop-color="#F8C73D"/>
</linearGradient>
<linearGradient id="paint19_linear_14363_150814" x1="72.905" y1="-13.6494" x2="73.048" y2="41.9984" gradientUnits="userSpaceOnUse">
<stop stop-color="#FF7A00"/>
<stop offset="0.745192" stop-color="#E7AC18"/>
<stop offset="1" stop-color="#F8C73D"/>
</linearGradient>
<linearGradient id="paint20_linear_14363_150814" x1="72.905" y1="-13.6494" x2="73.048" y2="41.9984" gradientUnits="userSpaceOnUse">
<stop stop-color="#FF7A00"/>
<stop offset="0.745192" stop-color="#E7AC18"/>
<stop offset="1" stop-color="#F8C73D"/>
</linearGradient>
<linearGradient id="paint21_linear_14363_150814" x1="72.905" y1="-13.6494" x2="73.048" y2="41.9984" gradientUnits="userSpaceOnUse">
<stop stop-color="#FF7A00"/>
<stop offset="0.745192" stop-color="#E7AC18"/>
<stop offset="1" stop-color="#F8C73D"/>
</linearGradient>
<linearGradient id="paint22_linear_14363_150814" x1="72.905" y1="-13.6494" x2="73.048" y2="41.9984" gradientUnits="userSpaceOnUse">
<stop stop-color="#FF7A00"/>
<stop offset="0.745192" stop-color="#E7AC18"/>
<stop offset="1" stop-color="#F8C73D"/>
</linearGradient>
<linearGradient id="paint23_linear_14363_150814" x1="72.905" y1="-13.6494" x2="73.048" y2="41.9984" gradientUnits="userSpaceOnUse">
<stop stop-color="#FF7A00"/>
<stop offset="0.745192" stop-color="#E7AC18"/>
<stop offset="1" stop-color="#F8C73D"/>
</linearGradient>
<linearGradient id="paint24_linear_14363_150814" x1="72.905" y1="-13.6494" x2="73.048" y2="41.9984" gradientUnits="userSpaceOnUse">
<stop stop-color="#FF7A00"/>
<stop offset="0.745192" stop-color="#E7AC18"/>
<stop offset="1" stop-color="#F8C73D"/>
</linearGradient>
<linearGradient id="paint25_linear_14363_150814" x1="72.905" y1="-13.6494" x2="73.048" y2="41.9984" gradientUnits="userSpaceOnUse">
<stop stop-color="#FF7A00"/>
<stop offset="0.745192" stop-color="#E7AC18"/>
<stop offset="1" stop-color="#F8C73D"/>
</linearGradient>
<linearGradient id="paint26_linear_14363_150814" x1="72.905" y1="-13.6494" x2="73.048" y2="41.9984" gradientUnits="userSpaceOnUse">
<stop stop-color="#FF7A00"/>
<stop offset="0.745192" stop-color="#E7AC18"/>
<stop offset="1" stop-color="#F8C73D"/>
</linearGradient>
<linearGradient id="paint27_linear_14363_150814" x1="72.905" y1="-13.6494" x2="73.048" y2="41.9984" gradientUnits="userSpaceOnUse">
<stop stop-color="#FF7A00"/>
<stop offset="0.745192" stop-color="#E7AC18"/>
<stop offset="1" stop-color="#F8C73D"/>
</linearGradient>
<linearGradient id="paint28_linear_14363_150814" x1="72.905" y1="-13.6494" x2="73.048" y2="41.9984" gradientUnits="userSpaceOnUse">
<stop stop-color="#FF7A00"/>
<stop offset="0.745192" stop-color="#E7AC18"/>
<stop offset="1" stop-color="#F8C73D"/>
</linearGradient>
<linearGradient id="paint29_linear_14363_150814" x1="72.905" y1="-13.6494" x2="73.048" y2="41.9984" gradientUnits="userSpaceOnUse">
<stop stop-color="#FF7A00"/>
<stop offset="0.745192" stop-color="#E7AC18"/>
<stop offset="1" stop-color="#F8C73D"/>
</linearGradient>
<linearGradient id="paint30_linear_14363_150814" x1="72.905" y1="-13.6494" x2="73.048" y2="41.9984" gradientUnits="userSpaceOnUse">
<stop stop-color="#FF7A00"/>
<stop offset="0.745192" stop-color="#E7AC18"/>
<stop offset="1" stop-color="#F8C73D"/>
</linearGradient>
<linearGradient id="paint31_linear_14363_150814" x1="72.905" y1="-13.6494" x2="73.048" y2="41.9984" gradientUnits="userSpaceOnUse">
<stop stop-color="#FF7A00"/>
<stop offset="0.745192" stop-color="#E7AC18"/>
<stop offset="1" stop-color="#F8C73D"/>
</linearGradient>
<linearGradient id="paint32_linear_14363_150814" x1="72.905" y1="-13.6494" x2="73.048" y2="41.9984" gradientUnits="userSpaceOnUse">
<stop stop-color="#FF7A00"/>
<stop offset="0.745192" stop-color="#E7AC18"/>
<stop offset="1" stop-color="#F8C73D"/>
</linearGradient>
<linearGradient id="paint33_linear_14363_150814" x1="72.905" y1="-13.6494" x2="73.048" y2="41.9984" gradientUnits="userSpaceOnUse">
<stop stop-color="#FF7A00"/>
<stop offset="0.745192" stop-color="#E7AC18"/>
<stop offset="1" stop-color="#F8C73D"/>
</linearGradient>
<linearGradient id="paint34_linear_14363_150814" x1="72.905" y1="-13.6494" x2="73.048" y2="41.9984" gradientUnits="userSpaceOnUse">
<stop stop-color="#FF7A00"/>
<stop offset="0.745192" stop-color="#E7AC18"/>
<stop offset="1" stop-color="#F8C73D"/>
</linearGradient>
<linearGradient id="paint35_linear_14363_150814" x1="72.905" y1="-13.6494" x2="73.048" y2="41.9984" gradientUnits="userSpaceOnUse">
<stop stop-color="#FF7A00"/>
<stop offset="0.745192" stop-color="#E7AC18"/>
<stop offset="1" stop-color="#F8C73D"/>
</linearGradient>
<linearGradient id="paint36_linear_14363_150814" x1="72.905" y1="-13.6494" x2="73.048" y2="41.9984" gradientUnits="userSpaceOnUse">
<stop stop-color="#FF7A00"/>
<stop offset="0.745192" stop-color="#E7AC18"/>
<stop offset="1" stop-color="#F8C73D"/>
</linearGradient>
<linearGradient id="paint37_linear_14363_150814" x1="72.905" y1="-13.6494" x2="73.048" y2="41.9984" gradientUnits="userSpaceOnUse">
<stop stop-color="#FF7A00"/>
<stop offset="0.745192" stop-color="#E7AC18"/>
<stop offset="1" stop-color="#F8C73D"/>
</linearGradient>
<linearGradient id="paint38_linear_14363_150814" x1="72.905" y1="-13.6494" x2="73.048" y2="41.9984" gradientUnits="userSpaceOnUse">
<stop stop-color="#FF7A00"/>
<stop offset="0.745192" stop-color="#E7AC18"/>
<stop offset="1" stop-color="#F8C73D"/>
</linearGradient>
<linearGradient id="paint39_linear_14363_150814" x1="72.905" y1="-13.6494" x2="73.048" y2="41.9984" gradientUnits="userSpaceOnUse">
<stop stop-color="#FF7A00"/>
<stop offset="0.745192" stop-color="#E7AC18"/>
<stop offset="1" stop-color="#F8C73D"/>
</linearGradient>
<linearGradient id="paint40_linear_14363_150814" x1="72.905" y1="-13.6494" x2="73.048" y2="41.9984" gradientUnits="userSpaceOnUse">
<stop stop-color="#FF7A00"/>
<stop offset="0.745192" stop-color="#E7AC18"/>
<stop offset="1" stop-color="#F8C73D"/>
</linearGradient>
<linearGradient id="paint41_linear_14363_150814" x1="72.905" y1="-13.6494" x2="73.048" y2="41.9984" gradientUnits="userSpaceOnUse">
<stop stop-color="#FF7A00"/>
<stop offset="0.745192" stop-color="#E7AC18"/>
<stop offset="1" stop-color="#F8C73D"/>
</linearGradient>
<clipPath id="clip0_14363_150814">
<rect width="10.2996" height="10.2996" fill="white" transform="translate(31.0674 1)"/>
</clipPath>
<clipPath id="clip1_14363_150814">
<rect width="10.2996" height="10.2996" fill="white" transform="translate(56.6665 1)"/>
</clipPath>
<clipPath id="clip2_14363_150814">
<rect width="10.2996" height="10.2996" fill="white" transform="translate(69.4663 1)"/>
</clipPath>
</defs>
</svg>
